# xmcd CD database file
#
# Track frame offsets:
#	150
#	20187
#	38610
#	51050
#	63842
#	78092
#	95405
#	111215
#	128822
#	143537
#	156430
#	171742
#	177332
#	189597
#
# Disc length: 2702 seconds
#
# Revision: 2
# Processed by: cddbd v1.5.2PL0 Copyright (c) Steve Scherf et al.
# Submitted via: CDex 1.70beta2
#
DISCID=bb0a8c0e
DTITLE=Professor Longhair - The London Concert
DYEAR=2005
DGENRE=R&B
TTITLE0=Mess Around
TTITLE1=Hey Now Baby
TTITLE2=Whole Lot Of Loving
TTITLE3=Go To The Mardi Gras
TTITLE4=Baldhead
TTITLE5=Tipitina
TTITLE6=Big Chief
TTITLE7=Everyday I Have The Blues
TTITLE8=Hey Little Girl
TTITLE9=Lovely Lady
TTITLE10=Medley: She Walked Right In - Shake Rattle and Roll - Sick and Tired
TTITLE11=Rockin Pneumonia
TTITLE12=Rockin' With Fess
TTITLE13=P.I. Boogie
EXTD=YEAR: 2005
EXTT0=
EXTT1=
EXTT2=
EXTT3=
EXTT4=
EXTT5=
EXTT6=
EXTT7=
EXTT8=
EXTT9=
EXTT10=
EXTT11=
EXTT12=
EXTT13=
PLAYORDER=
